<svg data-v-fde0c5aa="" xmlns="http://www.w3.org/2000/svg" viewBox="0 0 300 300" class="font"><!----><defs data-v-fde0c5aa=""><!----></defs><rect data-v-fde0c5aa="" fill="#000000" x="0" y="0" width="300px" height="300px" class="logo-background-square"></rect><defs data-v-fde0c5aa=""><!----></defs><g data-v-fde0c5aa="" id="8d76a242-f775-43bc-ab28-d0aed86e8db8" fill="#FFF2F2" transform="matrix(5.333333333333333,0,0,5.333333333333333,35.09333324432373,91.97333272298178)"><path d="M7.62 12.54L2.02 12.54Q2.06 13.58 2.66 14.21Q3.26 14.84 4.34 14.84L4.34 14.84Q4.83 14.84 5.19 14.73Q5.56 14.62 5.82 14.42Q6.08 14.22 6.24 13.96Q6.40 13.71 6.50 13.41L6.50 13.41L7.53 13.69Q7.24 14.66 6.45 15.27Q5.66 15.88 4.31 15.88L4.31 15.88Q3.57 15.88 2.95 15.62Q2.32 15.36 1.88 14.88Q1.43 14.41 1.18 13.75Q0.92 13.09 0.92 12.29L0.92 12.29L0.92 11.96Q0.92 11.23 1.18 10.60Q1.44 9.97 1.90 9.51Q2.37 9.06 2.99 8.80Q3.61 8.54 4.34 8.54L4.34 8.54Q5.19 8.54 5.82 8.86Q6.44 9.17 6.84 9.63Q7.24 10.09 7.43 10.64Q7.62 11.19 7.62 11.65L7.62 11.65L7.62 12.54ZM4.34 9.58L4.34 9.58Q3.88 9.58 3.48 9.72Q3.08 9.87 2.78 10.14Q2.48 10.40 2.29 10.76Q2.10 11.12 2.04 11.54L2.04 11.54L6.52 11.54Q6.50 11.09 6.31 10.72Q6.12 10.36 5.82 10.11Q5.52 9.86 5.13 9.72Q4.75 9.58 4.34 9.58ZM9.79 15.68L9.79 14.67L12.31 14.67L12.31 6.89L9.87 6.89L9.87 5.88L13.40 5.88L13.40 14.67L15.92 14.67L15.92 15.68L9.79 15.68ZM24.91 12.12L24.91 12.29Q24.91 13.16 24.62 13.82Q24.33 14.49 23.86 14.95Q23.38 15.40 22.74 15.64Q22.11 15.88 21.42 15.88L21.42 15.88Q20.72 15.88 20.09 15.64Q19.46 15.40 18.98 14.95Q18.51 14.49 18.22 13.82Q17.93 13.16 17.93 12.29L17.93 12.29L17.93 12.12Q17.93 11.27 18.22 10.61Q18.51 9.94 18.99 9.48Q19.47 9.02 20.10 8.78Q20.73 8.54 21.42 8.54L21.42 8.54Q22.11 8.54 22.74 8.78Q23.37 9.02 23.85 9.48Q24.33 9.94 24.62 10.61Q24.91 11.27 24.91 12.12L24.91 12.12ZM21.42 14.84L21.42 14.84Q21.92 14.84 22.35 14.66Q22.78 14.49 23.10 14.15Q23.42 13.82 23.60 13.35Q23.79 12.88 23.79 12.29L23.79 12.29L23.79 12.12Q23.79 11.56 23.60 11.09Q23.42 10.63 23.10 10.29Q22.78 9.95 22.34 9.77Q21.91 9.58 21.42 9.58L21.42 9.58Q20.93 9.58 20.50 9.77Q20.06 9.95 19.74 10.29Q19.42 10.63 19.24 11.09Q19.05 11.56 19.05 12.12L19.05 12.12L19.05 12.29Q19.05 12.88 19.24 13.35Q19.42 13.82 19.74 14.15Q20.06 14.49 20.49 14.66Q20.92 14.84 21.42 14.84ZM26.53 9.74L26.53 8.74L29.05 8.74L29.05 9.66L29.22 9.66Q29.48 9.09 29.97 8.81Q30.46 8.54 31.09 8.54L31.09 8.54Q32.14 8.54 32.79 9.23Q33.43 9.91 33.47 11.23L33.47 11.23L32.33 11.40Q32.33 10.43 31.86 10.00Q31.40 9.58 30.73 9.58L30.73 9.58Q30.30 9.58 29.98 9.74Q29.67 9.91 29.46 10.21Q29.25 10.50 29.15 10.89Q29.05 11.28 29.05 11.73L29.05 11.73L29.05 14.67L30.81 14.67L30.81 15.68L26.36 15.68L26.36 14.67L27.96 14.67L27.96 9.74L26.53 9.74ZM42.17 10.33L42.17 15.68L41.08 15.68L41.08 10.70Q41.08 10.21 40.85 9.89Q40.63 9.58 40.14 9.58L40.14 9.58Q39.68 9.58 39.39 9.92Q39.10 10.26 39.10 10.98L39.10 10.98L39.10 15.68L38.01 15.68L38.01 10.64Q38.01 10.18 37.76 9.88Q37.51 9.58 37.09 9.58L37.09 9.58Q36.58 9.58 36.31 9.94Q36.04 10.30 36.04 10.89L36.04 10.89L36.04 15.68L34.94 15.68L34.94 8.74L36.04 8.74L36.04 9.49L36.20 9.49Q36.39 9.00 36.74 8.77Q37.09 8.54 37.56 8.54L37.56 8.54Q38.07 8.54 38.39 8.81Q38.72 9.07 38.85 9.49L38.85 9.49L39.02 9.49Q39.49 8.54 40.53 8.54L40.53 8.54Q41.31 8.54 41.74 9.04Q42.17 9.53 42.17 10.33L42.17 10.33Z"></path></g><!----><!----></svg>